<svg height="496pt" viewBox="-80 0 496 496" width="496pt" xmlns="http://www.w3.org/2000/svg"><path d="m168 216c-8.824219 0-16-7.175781-16-16h-16c0 17.648438 14.351562 32 32 32s32-14.351562 32-32h-16c0 8.824219-7.175781 16-16 16zm0 0"/><path d="m297.710938 301.472656-9.710938-3.242187v-178.230469c0-66.167969-53.832031-120-120-120s-120 53.832031-120 120v178.230469l-9.710938 3.242187c-22.90625 7.632813-38.289062 28.984375-38.289062 53.128906v69.398438c0 22.054688 17.945312 40 40 40h8v32h288v-141.398438c0-24.144531-15.382812-45.496093-38.289062-53.128906zm22.289062 53.128906v45.398438h-32v-48h-16v128h-76.449219c2.753907-4.726562 4.449219-10.144531 4.449219-16v-80h16v-48h-12.6875l5.085938-5.089844c9.9375-9.933594 15.441406-23.109375 15.578124-37.148437l68.671876 22.886719c16.359374 5.457031 27.351562 20.703124 27.351562 37.953124zm-168 109.398438v-1.136719c13.761719-3.574219 24-16 24-30.863281s-10.238281-27.289062-24-30.863281v-17.136719h32v80c0 8.824219-7.175781 16-16 16s-16-7.175781-16-16zm-13.089844-144.398438c-7.039062-7.042968-10.910156-16.394531-10.910156-26.34375 0-20.546874 16.710938-37.257812 37.257812-37.257812h5.496094c20.535156 0 37.246094 16.710938 37.246094 37.257812 0 9.949219-3.871094 19.308594-10.910156 26.34375l-16.402344 16.398438h-25.375zm60.640625-71.074218c-8.3125-5.367188-18.191406-8.527344-28.808593-8.527344h-5.496094c-10.613282 0-20.492188 3.160156-28.804688 8.535156-24.625-12.054687-40.441406-36.871094-40.441406-64.535156v-56h8c24.222656 0 47.496094-10.175781 64-27.617188 16.503906 17.441407 39.777344 27.617188 64 27.617188h8v56c0 27.6875-15.808594 52.480469-40.449219 64.527344zm-63.550781 119.472656v-16h64v16zm85.039062-92.089844c-2.007812-5.8125-4.976562-11.183594-8.75-15.894531 20-11.632813 34.414063-30.519531 40.480469-52.503906 7.175781-.863281 13.734375-3.558594 19.230469-7.71875v93.101562zm34.960938-91.910156v-38.527344c9.289062 3.3125 16 12.113282 16 22.527344 0 10.503906-6.824219 19.359375-16.246094 22.601562.167969-2.1875.246094-4.386718.246094-6.601562zm-88-168c57.34375 0 104 46.65625 104 104v16.207031c-4.671875-3.535156-10.054688-6.183593-16-7.390625v-16.816406h-24c-22.542969 0-44.070312-10.769531-57.601562-28.800781l-6.398438-8.535157-6.398438 8.535157c-13.53125 18.03125-35.058593 28.800781-57.601562 28.800781h-24v16.808594c-5.945312 1.214844-11.328125 3.855468-16 7.390625v-16.199219c0-57.34375 46.65625-104 104-104zm-87.753906 174.601562c-9.421875-3.242187-16.246094-12.097656-16.246094-22.601562 0-10.414062 6.710938-19.214844 16-22.527344v38.527344c0 2.214844.078125 4.414062.246094 6.601562zm-16.246094 9.191407c5.496094 4.160156 12.054688 6.855469 19.230469 7.71875 6.074219 21.96875 20.488281 40.863281 40.480469 52.496093-3.773438 4.710938-6.742188 10.082032-8.757813 15.894532l-50.953125 16.992187zm-20.648438 116.855469 68.671876-22.886719c.128906 14.03125 5.632812 27.207031 15.578124 37.148437l5.085938 5.089844h-12.6875v48h16v16h-72v-48h-16v32h-32v-29.398438c0-17.25 10.992188-32.496093 27.351562-37.953124zm-27.351562 107.351562v-24h32v16h96c8.824219 0 16 7.175781 16 16s-7.175781 16-16 16h-104c-13.230469 0-24-10.769531-24-24zm48 40h72c0 5.855469 1.695312 11.273438 4.449219 16h-76.449219zm224 16v-64h32v64zm0 0"/><path d="m136 160c0 4.417969-3.582031 8-8 8s-8-3.582031-8-8 3.582031-8 8-8 8 3.582031 8 8zm0 0"/><path d="m216 160c0 4.417969-3.582031 8-8 8s-8-3.582031-8-8 3.582031-8 8-8 8 3.582031 8 8zm0 0"/></svg>